<?xml version="1.0" encoding="utf-8"?>
<!-- Generator: Adobe Illustrator 23.0.3, SVG Export Plug-In . SVG Version: 6.00 Build 0)  -->
<svg version="1.1" xmlns="http://www.w3.org/2000/svg" xmlns:xlink="http://www.w3.org/1999/xlink" x="0px" y="0px"
	 viewBox="0 0 1080 1080" style="enable-background:new 0 0 1080 1080;" xml:space="preserve">
<style type="text/css">
	.st0{fill:none;stroke:#FFFFFF;stroke-width:10;stroke-miterlimit:10;}
	.st1{fill:#FFFFFF;}
	.st2{display:none;fill:#FFFFFF;stroke:#000000;stroke-miterlimit:10;}
	.st3{fill:#E03A3C;}
</style>
<g id="Layer_1">
	
		<image style="display:none;overflow:visible;" width="216" height="160" xlink:href="../../Users/sco0/Dropbox/Мой ПК (DESKTOP-S2PFDFN)/Downloads/Group 10.png"  transform="matrix(1 0 0 1 44.6092 661.7872)">
	</image>
</g>
<g id="Layer_3">
</g>
<g id="Layer_4">
</g>
<g id="Layer_5">
	<rect x="-21.3" y="-28.1" width="1135.1" height="1126"/>
</g>
<g id="Layer_2">
	<g>
		<path class="st0" d="M668.1,581v288h-416V194.1c198-0.2,396-0.5,594-0.7c0,46.1,0,233.4,0,279.5"/>
		<g>
			<path class="st1" d="M396.7,479.1V333.6h10.5v136.2h86.9v9.4H396.7z"/>
			<path class="st2" d="M509,448.5c0-6.4,1.9-12,5.7-16.7c3.8-4.7,9.1-8.4,15.8-11c6.7-2.7,14.4-4,23.2-4c5.5,0,11.1,0.5,17,1.4
				c5.9,1,11.1,2.3,15.8,3.9v-10c0-9.8-2.8-17.6-8.5-23.5c-5.7-5.8-13.5-8.8-23.5-8.8c-5.3,0-10.9,1.1-16.6,3.3
				c-5.7,2.2-11.6,5.3-17.6,9.4l-4.3-7.4c7-4.6,13.7-8.2,20.2-10.6c6.5-2.4,13-3.6,19.4-3.6c12.7,0,22.8,3.7,30.1,11.2
				c7.4,7.5,11.1,17.7,11.1,30.6v52.7c0,1.6,0.4,2.9,1.1,3.7c0.8,0.8,1.9,1.3,3.4,1.4v8.4c-1.2,0.1-2.3,0.2-3.1,0.2s-1.5,0-2.1,0
				c-2.6-0.4-4.6-1.5-6-3.3c-1.4-1.8-2.2-3.8-2.4-5.9v-8.4c-4.9,6.2-11.2,10.9-19,14.4c-7.7,3.4-15.8,5.1-24.3,5.1
				c-6.7,0-12.8-1.4-18.1-4.3c-5.4-2.9-9.6-6.8-12.7-11.8C510.6,460.2,509,454.6,509,448.5z M582.4,457.3c1.4-1.8,2.4-3.5,3.1-5.1
				c0.7-1.6,1-3.1,1-4.5v-17.6c-4.9-1.9-10-3.3-15.4-4.3c-5.3-1-10.8-1.4-16.4-1.4c-10.7,0-19.3,2.1-25.9,6.3
				c-6.6,4.2-9.9,9.9-9.9,17.2c0,4.5,1.2,8.6,3.5,12.5c2.3,3.8,5.6,6.9,9.7,9.2c4.2,2.3,9,3.5,14.5,3.5c7.7,0,14.7-1.5,21.2-4.4
				C574.3,465.7,579.2,461.9,582.4,457.3z"/>
			<path class="st2" d="M720.2,479.1H710v-59.2c0-13.6-1.9-23.6-5.8-29.9c-3.9-6.3-10.1-9.5-18.6-9.5c-6,0-11.9,1.4-17.7,4.3
				s-10.9,6.8-15.2,11.7c-4.3,5-7.4,10.6-9.3,16.8v65.8h-10.3V372.7h9.6v25.5c2.9-5.4,6.7-10.2,11.5-14.2c4.8-4,10.1-7.2,16-9.5
				c5.9-2.3,12-3.5,18.3-3.5c5.9,0,10.8,1.1,14.9,3.2c4,2.1,7.3,5.1,9.8,9.1c2.5,4,4.3,8.9,5.4,14.7c1.1,5.9,1.6,12.5,1.6,20V479.1z
				"/>
			<path class="st2" d="M749,426.2c0-9.9,2.1-19.1,6.4-27.4c4.2-8.3,10.1-15,17.4-20.1c7.4-5.1,15.8-7.7,25.2-7.7
				c6.4,0,12.2,1.2,17.6,3.5c1.6,0.7,3.9,1.8,7.1,3.9c10.1,6.7,18.3,16.6,22.8,22.5c1.4,21.5,2.9,43.1,4.3,64.6
				c0,0.3-0.3,2.2,1.1,3.7c0.7,0.8,1.8,1.3,3.2,1.4v8.4c-2.2,0.3-3.8,0.3-4.9,0.2c-2.5-0.4-4.5-1.6-6.2-3.5c-1.6-1.9-2.5-4-2.5-6.2
				v-11.9c-4.4,7.1-10.3,12.8-17.6,17c-7.4,4.2-15,6.4-22.8,6.4c-7.4,0-14.2-1.5-20.5-4.6c-6.3-3.1-11.7-7.2-16.3-12.4
				c-4.6-5.2-8.1-11-10.7-17.6C750.2,440.1,749,433.3,749,426.2z M839.6,443.4v-34.9c-1.9-5.2-5-9.9-9.2-14.2
				c-4.2-4.3-9-7.7-14.4-10.2c-5.3-2.5-10.6-3.8-15.8-3.8c-6.1,0-11.7,1.3-16.7,3.9c-5,2.6-9.3,6.1-12.9,10.4
				c-3.6,4.4-6.4,9.3-8.3,14.8c-1.9,5.5-2.9,11.2-2.9,17c0,6,1.1,11.7,3.3,17.3c2.2,5.5,5.2,10.4,9.1,14.7c3.9,4.3,8.4,7.6,13.5,10
				c5.1,2.4,10.7,3.6,16.7,3.6c3.7,0,7.6-0.7,11.8-2.2c4.2-1.5,8.1-3.6,11.9-6.2c3.8-2.7,6.9-5.7,9.4-9.2
				C837.7,450.8,839.2,447.2,839.6,443.4z"/>
			<path class="st2" d="M887.6,348.3v-18.9h10.3v18.9H887.6z M887.6,479.1V372.5h10.3v106.6H887.6z"/>
			<path class="st2" d="M1022.3,479.1h-10.3v-59.2c0-13.6-1.9-23.6-5.8-29.9c-3.9-6.3-10.1-9.5-18.6-9.5c-6,0-11.9,1.4-17.7,4.3
				s-10.9,6.8-15.2,11.7c-4.3,5-7.4,10.6-9.3,16.8v65.8h-10.3V372.7h9.6v25.5c2.9-5.4,6.7-10.2,11.5-14.2c4.8-4,10.1-7.2,16-9.5
				c5.9-2.3,12-3.5,18.3-3.5c5.9,0,10.8,1.1,14.9,3.2c4,2.1,7.3,5.1,9.8,9.1c2.5,4,4.3,8.9,5.4,14.7c1.1,5.9,1.6,12.5,1.6,20V479.1z
				"/>
			<path class="st2" d="M1101.5,481.2c-7.2,0-14-1.5-20.2-4.5c-6.2-3-11.6-7.1-16-12.4c-4.4-5.3-7.9-11.1-10.5-17.6
				c-2.5-6.5-3.8-13.2-3.8-20.2c0-7.2,1.2-14.2,3.6-20.9c2.4-6.7,5.8-12.6,10.3-17.7c4.4-5.1,9.7-9.2,15.7-12.2
				c6-3,12.7-4.5,20.1-4.5c9.3,0,17.4,2.4,24.3,7.2c6.9,4.8,12.7,10.7,17.5,17.6v-23.2h9.4v108.5c0,9.6-2.3,17.6-7,24.2
				c-4.6,6.6-10.8,11.4-18.5,14.6c-7.7,3.2-15.9,4.8-24.8,4.8c-12.4,0-22.3-2.3-29.6-6.8c-7.3-4.5-13.2-10.5-17.7-17.8l7-4.7
				c4.2,7.1,10,12.4,17.2,15.8c7.2,3.4,15,5.1,23.2,5.1c7.2,0,13.9-1.3,20-4c6.1-2.6,10.9-6.6,14.6-11.8c3.6-5.2,5.4-11.6,5.4-19.2
				v-23.4c-4.2,7-10,12.5-17.3,16.7C1117,479.1,1109.4,481.2,1101.5,481.2z M1103.9,472.4c4.5,0,8.9-0.8,13.1-2.5
				c4.2-1.6,8.1-3.9,11.7-6.7c3.6-2.8,6.5-5.9,8.8-9.3c2.3-3.4,3.7-6.8,4.1-10.3v-35.1c-2.1-5.5-5.2-10.4-9.3-14.7
				c-4.2-4.3-8.9-7.7-14-10c-5.2-2.4-10.5-3.6-16-3.6c-6.4,0-12.2,1.4-17.2,4.1c-5.1,2.7-9.3,6.3-12.8,10.8c-3.5,4.4-6.2,9.4-8,15
				c-1.8,5.5-2.8,11-2.8,16.5c0,6.2,1.1,12,3.3,17.4c2.2,5.5,5.2,10.4,9.1,14.7c3.9,4.3,8.4,7.7,13.5,10
				C1092.5,471.2,1098,472.4,1103.9,472.4z"/>
		</g>
		<g>
			<path class="st1" d="M533.2,736.6V591h59.9c6.2,0,11.8,1.3,16.9,3.9c5.1,2.6,9.6,6,13.4,10.4c3.8,4.3,6.8,9.1,8.9,14.5
				c2.1,5.3,3.2,10.8,3.2,16.4c0,7.8-1.7,15.1-5.2,22c-3.5,6.9-8.3,12.5-14.4,16.9c-6.1,4.4-13.3,6.6-21.6,6.6h-50.7v55H533.2z
				 M543.6,672h50.2c6.4,0,12-1.7,16.6-5.1c4.6-3.4,8.2-7.9,10.7-13.3c2.5-5.5,3.7-11.3,3.7-17.4c0-6.4-1.5-12.3-4.4-17.7
				c-2.9-5.4-6.8-9.7-11.7-13c-4.9-3.3-10.2-4.9-16.1-4.9h-49V672z"/>
			<path class="st2" d="M706.1,705.9c0-6.4,1.9-12,5.7-16.7c3.8-4.7,9.1-8.4,15.8-11c6.7-2.7,14.4-4,23.2-4c5.5,0,11.1,0.5,17,1.4
				c5.9,1,11.1,2.3,15.8,3.9v-10c0-9.8-2.8-17.6-8.5-23.5c-5.7-5.8-13.5-8.8-23.5-8.8c-5.3,0-10.9,1.1-16.6,3.3
				c-5.7,2.2-11.6,5.3-17.6,9.4l-4.3-7.4c7-4.6,13.7-8.2,20.2-10.6c6.5-2.4,13-3.6,19.4-3.6c12.7,0,22.8,3.7,30.1,11.2
				c7.4,7.5,11.1,17.7,11.1,30.6v52.7c0,1.6,0.4,2.9,1.1,3.7c0.7,0.8,1.9,1.3,3.4,1.4v8.4c-1.2,0.1-2.3,0.2-3.1,0.2
				c-0.8,0-1.5,0-2,0c-2.6-0.4-4.6-1.5-6-3.3c-1.4-1.8-2.2-3.8-2.4-5.9v-8.4c-4.9,6.2-11.2,10.9-19,14.4c-7.7,3.4-15.8,5.1-24.3,5.1
				c-6.7,0-12.8-1.4-18.1-4.3s-9.6-6.8-12.7-11.8C707.6,717.6,706.1,712.1,706.1,705.9z M779.5,714.7c1.4-1.8,2.4-3.5,3.1-5.1
				c0.7-1.6,1-3.1,1-4.5v-17.6c-4.9-1.9-10.1-3.3-15.4-4.3c-5.3-1-10.8-1.4-16.4-1.4c-10.7,0-19.3,2.1-25.9,6.3
				c-6.6,4.2-9.9,9.9-9.9,17.2c0,4.5,1.2,8.6,3.5,12.5c2.3,3.8,5.6,6.9,9.7,9.2c4.2,2.3,9,3.5,14.5,3.5c7.7,0,14.7-1.5,21.2-4.4
				C771.3,723.1,776.2,719.3,779.5,714.7z"/>
			<path class="st2" d="M875.4,738.6c-7.4,0-14.3-1.5-20.7-4.4c-6.4-2.9-12-6.9-16.8-12.1c-4.8-5.1-8.5-11-11.2-17.7
				c-2.7-6.7-4-13.8-4-21.5c0-10.2,2.3-19.4,6.8-27.6c4.5-8.2,10.7-14.7,18.7-19.6c7.9-4.9,17-7.4,27.1-7.4c9.7,0,18.3,2.2,25.6,6.7
				c7.4,4.4,12.9,10.5,16.6,18.1l-10.1,3.3c-3.1-5.9-7.6-10.5-13.4-13.8c-5.8-3.3-12.2-5-19.2-5c-7.8,0-14.8,2-21.1,5.9
				c-6.3,3.9-11.3,9.4-15.1,16.2c-3.8,6.9-5.6,14.6-5.6,23.2c0,8.4,1.9,16.2,5.7,23.3c3.8,7.1,8.9,12.7,15.3,16.8
				c6.4,4.2,13.4,6.2,21,6.2c4.9,0,9.7-0.9,14.5-2.8c4.7-1.8,8.8-4.3,12.3-7.3c3.5-3,5.8-6.2,6.9-9.6l10.1,2.9
				c-1.8,5.1-4.9,9.5-9.2,13.4c-4.4,3.9-9.5,7-15.3,9.2C888.4,737.5,882.1,738.6,875.4,738.6z"/>
			<path class="st2" d="M991.3,738.6c-7.5,0-14.5-1.5-20.9-4.4c-6.4-2.9-12-6.9-16.7-12.1c-4.7-5.1-8.4-11-11.1-17.8
				c-2.7-6.7-4-13.9-4-21.4c0-10.1,2.3-19.2,6.8-27.4c4.5-8.2,10.7-14.7,18.7-19.7c7.9-5,16.8-7.5,26.7-7.5
				c10.1,0,19.1,2.5,26.9,7.6c7.8,5,14,11.7,18.6,19.9c4.6,8.2,6.9,17.3,6.9,27.1c0,0.8,0,1.6,0,2.5s-0.1,1.5-0.2,2h-93.5
				c0.5,8,2.8,15.3,6.8,21.8c4,6.5,9.1,11.7,15.3,15.4c6.2,3.7,13,5.6,20.4,5.6c7.4,0,14.4-1.9,20.9-5.7c6.6-3.8,11.1-8.7,13.7-14.8
				l9,2.5c-2,5.1-5.3,9.6-9.7,13.5c-4.4,4-9.6,7.1-15.6,9.3C1004.1,737.5,997.9,738.6,991.3,738.6z M948.8,679.6h84.3
				c-0.5-8.3-2.7-15.6-6.6-22c-3.8-6.4-8.9-11.4-15.1-15.1c-6.2-3.7-13.1-5.5-20.6-5.5s-14.4,1.8-20.5,5.5
				c-6.2,3.7-11.1,8.7-15,15.1C951.6,663.9,949.4,671.3,948.8,679.6z"/>
		</g>
		<circle class="st3" cx="892.8" cy="335.3" r="23.3"/>
	</g>
</g>
</svg>
