<svg xmlns="http://www.w3.org/2000/svg" viewBox="0 0 317.89 276.23"><defs><style>.cls-1{fill:none;stroke:#000;stroke-miterlimit:10;stroke-width:2.3px;}.cls-2{fill:#e03a3c;}</style></defs><title>favicon ver 1</title><g id="Layer_3" data-name="Layer 3"><path class="cls-1" d="M67.77,64.87v67.4H-29.6v-158l139.05-.17V6.49" transform="translate(30.75 142.81)"/></g><g id="Layer_4" data-name="Layer 4"><path d="M4.46,41V7H6.91V38.83H27.26V41Z" transform="translate(30.75 142.81)"/></g><g id="Layer_5" data-name="Layer 5"><path d="M36.42,101.29V67.21h14a8.61,8.61,0,0,1,4,.92,10.29,10.29,0,0,1,3.14,2.42,11.42,11.42,0,0,1,2.09,3.39,10.15,10.15,0,0,1,.74,3.83,11.27,11.27,0,0,1-1.22,5.17,11,11,0,0,1-3.36,4,8.45,8.45,0,0,1-5.06,1.53H38.87v12.86Zm2.45-15.12H50.63A6.46,6.46,0,0,0,54.52,85,7.7,7.7,0,0,0,57,81.85a9.77,9.77,0,0,0,.87-4.08,8.66,8.66,0,0,0-3.77-7.2,6.65,6.65,0,0,0-3.77-1.15H38.87Z" transform="translate(30.75 142.81)"/><text x="30.75" y="142.81"/></g><g id="Layer_2" data-name="Layer 2"><circle class="cls-2" cx="151.34" cy="150.19" r="5.45"/></g></svg>